<svg width="66" height="56" viewBox="0 0 66 56" fill="none" xmlns="http://www.w3.org/2000/svg">
<path d="M65.5 38C65.5 47.9411 57.4411 56 47.5 56L20.5 56C17.7386 56 15.5 53.7614 15.5 51L15.5 17C15.5 11.4772 19.9772 7 25.5 7L60.5 7C63.2614 7 65.5 9.23858 65.5 12L65.5 38Z" fill="#E8F5E9"/>
<path d="M27.4164 19.0109C27.1044 19.0109 26.8507 18.7576 26.8507 18.4452V17.4839C26.8507 17.1719 27.104 16.9182 27.4164 16.9182C27.7284 16.9182 27.9821 17.1715 27.9821 17.4839V18.4452C27.9821 18.7576 27.7284 19.0109 27.4164 19.0109Z" fill="#103E13"/>
<path d="M25.0381 19.0109C24.7261 19.0109 24.4724 18.7576 24.4724 18.4452V17.4839C24.4724 17.1719 24.7257 16.9182 25.0381 16.9182C25.3501 16.9182 25.6038 17.1715 25.6038 17.4839V18.4452C25.6034 18.7576 25.3505 19.0109 25.0381 19.0109Z" fill="#103E13"/>
<path d="M22.66 19.0109C22.348 19.0109 22.0944 18.7576 22.0944 18.4452V17.4839C22.0944 17.1719 22.3476 16.9182 22.66 16.9182C22.9721 16.9182 23.2257 17.1715 23.2257 17.4839V18.4452C23.2257 18.7576 22.9725 19.0109 22.66 19.0109Z" fill="#103E13"/>
<path d="M27.4164 22.942C27.1044 22.942 26.8507 22.6888 26.8507 22.3763V21.4154C26.8507 21.1034 27.104 20.8497 27.4164 20.8497C27.7284 20.8497 27.9821 21.103 27.9821 21.4154V22.3763C27.9821 22.6888 27.7284 22.942 27.4164 22.942Z" fill="#103E13"/>
<path d="M25.0381 22.942C24.7261 22.942 24.4724 22.6888 24.4724 22.3763V21.4154C24.4724 21.1034 24.7257 20.8497 25.0381 20.8497C25.3501 20.8497 25.6038 21.103 25.6038 21.4154V22.3763C25.6034 22.6888 25.3505 22.942 25.0381 22.942Z" fill="#103E13"/>
<path d="M22.66 22.942C22.348 22.942 22.0944 22.6888 22.0944 22.3763V21.4154C22.0944 21.1034 22.3476 20.8497 22.66 20.8497C22.9721 20.8497 23.2257 21.103 23.2257 21.4154V22.3763C23.2257 22.6888 22.9725 22.942 22.66 22.942Z" fill="#103E13"/>
<path d="M27.4164 26.8733C27.1044 26.8733 26.8507 26.6201 26.8507 26.3076V25.3463C26.8507 25.0343 27.104 24.7806 27.4164 24.7806C27.7284 24.7806 27.9821 25.0339 27.9821 25.3463V26.3076C27.9821 26.6201 27.7284 26.8733 27.4164 26.8733Z" fill="#103E13"/>
<path d="M25.0381 26.8733C24.7261 26.8733 24.4724 26.6201 24.4724 26.3076V25.3463C24.4724 25.0343 24.7257 24.7806 25.0381 24.7806C25.3501 24.7806 25.6038 25.0339 25.6038 25.3463V26.3076C25.6034 26.6201 25.3505 26.8733 25.0381 26.8733Z" fill="#103E13"/>
<path d="M22.66 26.8733C22.348 26.8733 22.0944 26.6201 22.0944 26.3076V25.3463C22.0944 25.0343 22.3476 24.7806 22.66 24.7806C22.9721 24.7806 23.2257 25.0339 23.2257 25.3463V26.3076C23.2257 26.6201 22.9725 26.8733 22.66 26.8733Z" fill="#103E13"/>
<path d="M27.4164 30.8037C27.1044 30.8037 26.8507 30.5505 26.8507 30.2381V29.2767C26.8507 28.9647 27.104 28.7111 27.4164 28.7111C27.7284 28.7111 27.9821 28.9643 27.9821 29.2767V30.2381C27.9821 30.5505 27.7284 30.8037 27.4164 30.8037Z" fill="#103E13"/>
<path d="M25.0381 30.8037C24.7261 30.8037 24.4724 30.5505 24.4724 30.2381V29.2767C24.4724 28.9647 24.7257 28.7111 25.0381 28.7111C25.3501 28.7111 25.6038 28.9643 25.6038 29.2767V30.2381C25.6034 30.5505 25.3505 30.8037 25.0381 30.8037Z" fill="#103E13"/>
<path d="M22.66 30.8037C22.348 30.8037 22.0944 30.5505 22.0944 30.2381V29.2767C22.0944 28.9647 22.3476 28.7111 22.66 28.7111C22.9721 28.7111 23.2257 28.9643 23.2257 29.2767V30.2381C23.2257 30.5505 22.9725 30.8037 22.66 30.8037Z" fill="#103E13"/>
<path d="M27.4164 34.735C27.1044 34.735 26.8507 34.4817 26.8507 34.1693V33.2084C26.8507 32.8964 27.104 32.6427 27.4164 32.6427C27.7284 32.6427 27.9821 32.896 27.9821 33.2084V34.1693C27.9821 34.4813 27.7284 34.735 27.4164 34.735Z" fill="#103E13"/>
<path d="M25.0381 34.735C24.7261 34.735 24.4724 34.4817 24.4724 34.1693V33.2084C24.4724 32.8964 24.7257 32.6427 25.0381 32.6427C25.3501 32.6427 25.6038 32.896 25.6038 33.2084V34.1693C25.6034 34.4813 25.3505 34.735 25.0381 34.735Z" fill="#103E13"/>
<path d="M22.66 34.735C22.348 34.735 22.0944 34.4817 22.0944 34.1693L22.0948 33.2084C22.0948 32.8964 22.348 32.6427 22.6604 32.6427C22.9725 32.6427 23.2261 32.896 23.2261 33.2084V34.1693C23.2257 34.4813 22.9725 34.735 22.66 34.735Z" fill="#103E13"/>
<path d="M7.00047 38.6471C7.00047 38.9592 7.25372 39.2128 7.56615 39.2128H42.0139C42.3259 39.2128 42.5796 38.9596 42.5796 38.6471C42.5796 38.3351 42.3263 38.0815 42.0139 38.0815H40.9682V21.8402C40.9682 21.5281 40.715 21.2745 40.4025 21.2745L31.1668 21.2749V9.56576C31.1668 9.36774 31.0635 9.18471 30.8946 9.08214C30.7262 8.97919 30.5156 8.97287 30.3404 9.06399L19.8401 14.531C19.6527 14.6284 19.5359 14.8217 19.5359 15.0327V25.2604H9.37388C9.06186 25.2604 8.8082 25.5137 8.8082 25.8261V38.0816H7.56489C7.25287 38.0812 7 38.3344 7 38.6468L7.00047 38.6471ZM31.167 29.8422H39.8374V38.0819L31.167 38.0815V29.8422ZM31.167 25.9113H39.8374V28.7113L31.167 28.7109V25.9113ZM31.167 22.4056H39.8374V24.7808H31.167V22.4056ZM20.6667 15.3762L30.0353 10.4982V38.081H20.6667V15.3762ZM12.7359 33.5635C12.7359 32.3895 13.666 31.4341 14.8096 31.4341C15.9531 31.4341 16.8837 32.3891 16.8837 33.5635V38.0817H12.7359V33.5635ZM9.93952 26.3916H19.5358V38.0815H18.015V33.5633C18.015 31.7657 16.5776 30.303 14.8096 30.303C13.0424 30.303 11.605 31.7653 11.605 33.5633V38.0815H9.93952V26.3916Z" fill="#103E13"/>
</svg>
