<svg width="48" height="48" viewBox="0 0 48 48" fill="none" xmlns="http://www.w3.org/2000/svg">
<g clip-path="url(#clip0_316_878)">
<path d="M34.9695 39.153L25.5255 33.921C29.0355 31.1595 29.9895 25.7325 29.9895 22.689V16.3545C29.9895 12.1605 24.417 7.48949 18.819 7.48949C13.224 7.48949 7.503 12.1605 7.503 16.3545V22.689C7.503 25.4565 8.673 31.053 12.219 33.897L2.532 39.1515C2.532 39.1515 0 40.2795 0 41.685V45.486C0 46.8855 1.1355 48.0195 2.532 48.0195H34.9695C36.366 48.0195 37.5015 46.884 37.5015 45.486V41.685C37.5015 40.194 34.968 39.1515 34.968 39.1515L34.9695 39.153ZM34.5015 45.0225H3V42.3405C3.2145 42.183 3.516 42.0015 3.753 41.8935C3.8235 41.862 3.894 41.8275 3.9615 41.7885L13.65 36.534C14.5335 36.054 15.1185 35.166 15.2085 34.1655C15.2985 33.165 14.88 32.1855 14.097 31.557C11.5815 29.5395 10.503 25.074 10.503 22.6905V16.356C10.503 14.2005 14.565 10.491 18.819 10.491C23.1525 10.491 26.9895 14.151 26.9895 16.356V22.6905C26.9895 25.0395 26.2605 29.526 23.6715 31.563C22.8795 32.187 22.452 33.168 22.536 34.1715C22.62 35.175 23.205 36.072 24.0885 36.555L33.5325 41.787C33.615 41.832 33.7215 41.8815 33.8085 41.9205C34.0305 42.015 34.302 42.171 34.5015 42.309V45.0225ZM45.468 31.6845L35.883 26.4525C39.393 23.691 40.488 18.264 40.488 15.2205V8.88599C40.488 4.69199 34.776 -0.0255127 29.178 -0.0255127C25.5405 -0.0255127 21.822 1.95299 19.6575 4.48499C20.892 4.56149 22.2525 4.56299 23.4285 4.93799C25.0095 3.70649 27.0075 2.97599 29.178 2.97599C33.5115 2.97599 37.488 6.68099 37.488 8.88749V15.222C37.488 17.571 36.618 22.0575 34.0305 24.0945C33.237 24.7185 32.811 25.6995 32.895 26.703C32.979 27.708 33.5625 28.6035 34.4475 29.0865L44.0325 34.3185C44.115 34.3635 44.2215 34.413 44.3085 34.452C44.5305 34.5465 44.802 34.7025 45.0015 34.8405V37.509H38.946C39.861 38.199 40.137 39.186 40.4925 40.509H45.471C46.8675 40.509 48.003 39.3735 48.003 37.9755V34.221C48.0015 32.7285 45.468 31.6845 45.468 31.6845Z" fill="#4CAF4F"/>
</g>
<defs>
<clipPath id="clip0_316_878">
<rect width="48" height="48" fill="white"/>
</clipPath>
</defs>
</svg>
